<svg width="16" height="16" viewBox="0 0 16 16" fill="none" xmlns="http://www.w3.org/2000/svg">
<path fill-rule="evenodd" clip-rule="evenodd" d="M8.0001 14.4001C9.69748 14.4001 11.3253 13.7258 12.5256 12.5256C13.7258 11.3253 14.4001 9.69748 14.4001 8.0001C14.4001 6.30271 13.7258 4.67485 12.5256 3.47461C11.3253 2.27438 9.69748 1.6001 8.0001 1.6001C6.30271 1.6001 4.67485 2.27438 3.47461 3.47461C2.27438 4.67485 1.6001 6.30271 1.6001 8.0001C1.6001 9.69748 2.27438 11.3253 3.47461 12.5256C4.67485 13.7258 6.30271 14.4001 8.0001 14.4001ZM3.4657 6.4217C3.76273 5.57107 4.29273 4.82098 4.9953 4.2569C5.2097 4.5841 5.5793 4.8001 6.0001 4.8001C6.31836 4.8001 6.62358 4.92653 6.84863 5.15157C7.07367 5.37661 7.2001 5.68184 7.2001 6.0001V6.4001C7.2001 6.82444 7.36867 7.23141 7.66873 7.53147C7.96879 7.83153 8.37575 8.0001 8.8001 8.0001C9.22444 8.0001 9.63141 7.83153 9.93147 7.53147C10.2315 7.23141 10.4001 6.82444 10.4001 6.4001C10.4 6.04204 10.52 5.69428 10.7408 5.41247C10.9617 5.13066 11.2708 4.9311 11.6185 4.8457C12.3819 5.71903 12.8019 6.84011 12.8001 8.0001C12.8001 8.2721 12.7777 8.5401 12.7337 8.8001H12.0001C11.5758 8.8001 11.1688 8.96867 10.8687 9.26873C10.5687 9.56879 10.4001 9.97575 10.4001 10.4001V12.1577C9.67073 12.5797 8.84275 12.8013 8.0001 12.8001V11.2001C8.0001 10.7758 7.83153 10.3688 7.53147 10.0687C7.23141 9.76867 6.82444 9.6001 6.4001 9.6001C5.97575 9.6001 5.56878 9.43153 5.26873 9.13147C4.96867 8.83141 4.8001 8.42444 4.8001 8.0001C4.80024 7.6217 4.66626 7.25549 4.42196 6.96652C4.17766 6.67755 3.83885 6.48451 3.4657 6.4217Z" fill="url(#paint0_linear_8_5261)"/>
<defs>
<linearGradient id="paint0_linear_8_5261" x1="-0.213236" y1="1.6001" x2="14.4001" y2="12.2668" gradientUnits="userSpaceOnUse">
<stop offset="0.0848103" stop-color="#006EC0"/>
<stop offset="1" stop-color="#002139"/>
</linearGradient>
</defs>
</svg>
