<svg width="16" height="16" viewBox="0 0 16 16" fill="none" xmlns="http://www.w3.org/2000/svg">
<path d="M7.2001 3.84316C6.32787 3.41849 5.37022 3.1985 4.4001 3.19996C3.3961 3.19996 2.4457 3.43196 1.6001 3.84316V11.8432C2.47234 11.4185 3.42998 11.1985 4.4001 11.2C5.7353 11.2 6.9745 11.608 8.0001 12.308C9.06096 11.5841 10.3158 11.1979 11.6001 11.2C12.6041 11.2 13.5545 11.432 14.4001 11.8432V3.84316C13.5279 3.41849 12.5702 3.1985 11.6001 3.19996C10.5961 3.19996 9.6457 3.43196 8.8001 3.84316V9.59996C8.8001 9.81213 8.71581 10.0156 8.56578 10.1656C8.41575 10.3157 8.21227 10.4 8.0001 10.4C7.78792 10.4 7.58444 10.3157 7.43441 10.1656C7.28438 10.0156 7.2001 9.81213 7.2001 9.59996V3.84316Z" fill="url(#paint0_linear_8_5281)"/>
<defs>
<linearGradient id="paint0_linear_8_5281" x1="-0.213236" y1="3.19995" x2="10.7011" y2="14.3959" gradientUnits="userSpaceOnUse">
<stop offset="0.0848103" stop-color="#006EC0"/>
<stop offset="1" stop-color="#002139"/>
</linearGradient>
</defs>
</svg>
